<?xml version="1.0" encoding="UTF-8" standalone="no"?>
<!-- Created with Inkscape (http://www.inkscape.org/) -->

<svg
   xmlns:dc="http://purl.org/dc/elements/1.1/"
   xmlns:cc="http://creativecommons.org/ns#"
   xmlns:rdf="http://www.w3.org/1999/02/22-rdf-syntax-ns#"
   xmlns:svg="http://www.w3.org/2000/svg"
   xmlns="http://www.w3.org/2000/svg"
   xmlns:sodipodi="http://sodipodi.sourceforge.net/DTD/sodipodi-0.dtd"
   xmlns:inkscape="http://www.inkscape.org/namespaces/inkscape"
   id="svg4648"
   version="1.1"
   inkscape:version="0.91 r13725"
   xml:space="preserve"
   width="437.9501"
   height="656.42999"
   viewBox="0 0 437.9501 656.42999"
   sodipodi:docname="CarBody.svg"><metadata
     id="metadata4654"><rdf:RDF><cc:Work
         rdf:about=""><dc:format>image/svg+xml</dc:format><dc:type
           rdf:resource="http://purl.org/dc/dcmitype/StillImage" /><dc:title></dc:title></cc:Work></rdf:RDF></metadata><defs
     id="defs4652" /><sodipodi:namedview
     pagecolor="#ffffff"
     bordercolor="#666666"
     borderopacity="1"
     objecttolerance="10"
     gridtolerance="10"
     guidetolerance="10"
     inkscape:pageopacity="0"
     inkscape:pageshadow="2"
     inkscape:window-width="1895"
     inkscape:window-height="1056"
     id="namedview4650"
     showgrid="false"
     inkscape:zoom="1.1805042"
     inkscape:cx="219.17505"
     inkscape:cy="328.15005"
     inkscape:window-x="0"
     inkscape:window-y="0"
     inkscape:window-maximized="1"
     inkscape:current-layer="g4656"
     fit-margin-top="0"
     fit-margin-left="0"
     fit-margin-right="0"
     fit-margin-bottom="0" /><g
     id="g4656"
     inkscape:groupmode="layer"
     inkscape:label="CarBody5"
     transform="matrix(1.25,0,0,-1.25,-307.07495,700.15491)"><g
       id="g4658"
       transform="matrix(0.06,0,0,-0.06,0,595)"><g
         id="g4660"><g
           id="g4662" /></g><g
         id="g4664"><g
           id="g4666" /><g
           id="g4668"><path
             d="m 7144.2692,4957.6178 c 0,71.9457 -58.3235,130.2692 -130.2692,130.2692 -71.9457,0 -130.2692,-58.3235 -130.2692,-130.2692 0,-71.9458 58.3235,-130.2693 130.2692,-130.2693 71.9457,0 130.2692,58.3235 130.2692,130.2693 z"
             style="fill:none;stroke:#000000;stroke-width:13.33333302;stroke-linecap:round;stroke-linejoin:round;stroke-miterlimit:10;stroke-dasharray:none;stroke-opacity:1"
             id="path4670"
             inkscape:connector-curvature="0" /><path
             d="m 6942,4849 144,217"
             style="fill:none;stroke:#000000;stroke-width:13.33333302;stroke-linecap:round;stroke-linejoin:round;stroke-miterlimit:10;stroke-dasharray:none;stroke-opacity:1"
             id="path4672"
             inkscape:connector-curvature="0" /><path
             d="m 6942,5066 144,-217"
             style="fill:none;stroke:#000000;stroke-width:13.33333302;stroke-linecap:round;stroke-linejoin:round;stroke-miterlimit:10;stroke-dasharray:none;stroke-opacity:1"
             id="path4674"
             inkscape:connector-curvature="0" /><path
             d="m 7144.2692,2336 c 0,71.9457 -58.3235,130.2692 -130.2692,130.2692 -71.9457,0 -130.2692,-58.3235 -130.2692,-130.2692 0,-71.9457 58.3235,-130.2692 130.2692,-130.2692 71.9457,0 130.2692,58.3235 130.2692,130.2692 z"
             style="fill:none;stroke:#000000;stroke-width:13.33333302;stroke-linecap:round;stroke-linejoin:round;stroke-miterlimit:10;stroke-dasharray:none;stroke-opacity:1"
             id="path4676"
             inkscape:connector-curvature="0" /><path
             d="m 6942,2228 144,216"
             style="fill:none;stroke:#000000;stroke-width:13.33333302;stroke-linecap:round;stroke-linejoin:round;stroke-miterlimit:10;stroke-dasharray:none;stroke-opacity:1"
             id="path4678"
             inkscape:connector-curvature="0" /><path
             d="m 6942,2444 144,-216"
             style="fill:none;stroke:#000000;stroke-width:13.33333302;stroke-linecap:round;stroke-linejoin:round;stroke-miterlimit:10;stroke-dasharray:none;stroke-opacity:1"
             id="path4680"
             inkscape:connector-curvature="0" /><path
             d="M 8973,2444 7014,588"
             style="fill:none;stroke:#000000;stroke-width:13.33333302;stroke-linecap:round;stroke-linejoin:round;stroke-miterlimit:10;stroke-dasharray:none;stroke-opacity:1"
             id="path4682"
             inkscape:connector-curvature="0" /><path
             d="m 4101,647 0,189"
             style="fill:none;stroke:#000000;stroke-width:13.33333302;stroke-linecap:round;stroke-linejoin:round;stroke-miterlimit:10;stroke-dasharray:none;stroke-opacity:1"
             id="path4684"
             inkscape:connector-curvature="0" /><path
             d="m 4101,836 0,2 0,2 0,2 1,2 0,2 0,2 1,2 0,2 1,2 0,2 1,2 1,2 1,2 1,1 1,2 1,2 1,2 1,1 1,2 1,1 2,2 1,1 1,2 2,1 1,2 2,1 1,1 2,1 2,1 1,1 2,1 2,1 2,1 1,1 2,1 2,0 2,1"
             style="fill:none;stroke:#000000;stroke-width:13.33333302;stroke-linecap:round;stroke-linejoin:round;stroke-miterlimit:10;stroke-dasharray:none;stroke-opacity:1"
             id="path4686"
             inkscape:connector-curvature="0" /><path
             d="m 4159,588 -2,0 -2,0 -2,1 -2,0 -2,0 -2,0 -2,1 -1,0 -2,1 -2,1 -2,0 -2,1 -2,1 -2,1 -1,1 -2,1 -2,1 -1,1 -2,1 -2,1 -1,2 -2,1 -1,1 -1,2 -2,1 -1,2 -1,2 -1,1 -2,2 -1,2 -1,1 -1,2 0,2 -1,2 -1,1 -1,2 0,2 -1,2 0,2 -1,2 0,2 0,2 -1,2 0,2 0,2 0,2"
             style="fill:none;stroke:#000000;stroke-width:13.33333302;stroke-linecap:round;stroke-linejoin:round;stroke-miterlimit:10;stroke-dasharray:none;stroke-opacity:1"
             id="path4688"
             inkscape:connector-curvature="0" /><path
             d="m 4142,892 871,266"
             style="fill:none;stroke:#000000;stroke-width:13.33333302;stroke-linecap:round;stroke-linejoin:round;stroke-miterlimit:10;stroke-dasharray:none;stroke-opacity:1"
             id="path4690"
             inkscape:connector-curvature="0" /><path
             d="m 5055,1214 0,-2 0,-2 -1,-2 0,-2 0,-2 -1,-2 0,-2 0,-2 -1,-2 -1,-2 0,-2 -1,-1 -1,-2 -1,-2 -1,-2 -1,-1 -1,-2 -1,-2 -1,-1 -2,-2 -1,-1 -1,-2 -2,-1 -1,-2 -1,-1 -2,-1 -2,-2 -1,-1 -2,-1 -2,-1 -1,-1 -2,-1 -2,-1 -2,-1 -2,0 -1,-1 -2,-1 -1,0"
             style="fill:none;stroke:#000000;stroke-width:13.33333302;stroke-linecap:round;stroke-linejoin:round;stroke-miterlimit:10;stroke-dasharray:none;stroke-opacity:1"
             id="path4692"
             inkscape:connector-curvature="0" /><path
             d="m 9869,588 -5710,0"
             style="fill:none;stroke:#000000;stroke-width:13.33333302;stroke-linecap:round;stroke-linejoin:round;stroke-miterlimit:10;stroke-dasharray:none;stroke-opacity:1"
             id="path4694"
             inkscape:connector-curvature="0" /><path
             d="m 9927,647 0,-2 0,-2 0,-2 -1,-2 0,-2 0,-2 -1,-2 0,-2 -1,-2 0,-2 -1,-2 -1,-2 -1,-2 -1,-1 -1,-2 -1,-2 -1,-2 -1,-1 -1,-2 -1,-1 -2,-2 -1,-1 -1,-2 -2,-1 -1,-2 -2,-1 -1,-1 -2,-1 -2,-1 -1,-1 -2,-1 -2,-1 -2,-1 -1,-1 -2,-1 -2,-1 -2,0 -2,-1 -2,0 -2,-1 -2,0 -2,0 -2,0 -2,-1 -2,0 -1,0"
             style="fill:none;stroke:#000000;stroke-width:13.33333302;stroke-linecap:round;stroke-linejoin:round;stroke-miterlimit:10;stroke-dasharray:none;stroke-opacity:1"
             id="path4696"
             inkscape:connector-curvature="0" /><path
             d="m 9927,836 0,-189"
             style="fill:none;stroke:#000000;stroke-width:13.33333302;stroke-linecap:round;stroke-linejoin:round;stroke-miterlimit:10;stroke-dasharray:none;stroke-opacity:1"
             id="path4698"
             inkscape:connector-curvature="0" /><path
             d="m 9886,892 2,0 1,-1 2,-1 2,-1 2,-1 2,-1 1,-1 2,-1 2,-1 1,-1 2,-1 2,-1 1,-2 2,-1 1,-1 1,-2 2,-1 1,-2 1,-2 1,-1 1,-2 1,-2 1,-1 1,-2 1,-2 1,-2 0,-2 1,-2 1,-2 0,-1 1,-2 0,-2 0,-2 1,-2 0,-2 0,-2 0,-2 0,-1"
             style="fill:none;stroke:#000000;stroke-width:13.33333302;stroke-linecap:round;stroke-linejoin:round;stroke-miterlimit:10;stroke-dasharray:none;stroke-opacity:1"
             id="path4700"
             inkscape:connector-curvature="0" /><path
             d="m 9886,892 -871,266"
             style="fill:none;stroke:#000000;stroke-width:13.33333302;stroke-linecap:round;stroke-linejoin:round;stroke-miterlimit:10;stroke-dasharray:none;stroke-opacity:1"
             id="path4702"
             inkscape:connector-curvature="0" /><path
             d="m 9015,1158 -2,1 -2,1 -2,0 -2,1 -2,1 -1,1 -2,1 -2,1 -2,1 -1,1 -2,1 -1,2 -2,1 -1,1 -2,2 -1,1 -1,2 -2,1 -1,2 -1,2 -1,1 -1,2 -1,2 -1,2 -1,1 0,2 -1,2 -1,2 0,2 -1,2 0,2 -1,2 0,2 0,2 -1,2 0,2 0,2"
             style="fill:none;stroke:#000000;stroke-width:13.33333302;stroke-linecap:round;stroke-linejoin:round;stroke-miterlimit:10;stroke-dasharray:none;stroke-opacity:1"
             id="path4704"
             inkscape:connector-curvature="0" /><path
             d="m 5055,1214 0,2244"
             style="fill:none;stroke:#000000;stroke-width:13.33333302;stroke-linecap:round;stroke-linejoin:round;stroke-miterlimit:10;stroke-dasharray:none;stroke-opacity:1"
             id="path4706"
             inkscape:connector-curvature="0" /><path
             d="m 5013,3514 2,-1 2,-1 2,0 2,-1 2,-1 1,-1 2,-1 2,-1 2,-1 1,-1 2,-1 1,-2 2,-1 1,-1 2,-2 1,-1 1,-2 2,-1 1,-2 1,-2 1,-1 1,-2 1,-2 1,-2 1,-1 0,-2 1,-2 1,-2 0,-2 1,-2 0,-2 1,-2 0,-2 0,-2 1,-2 0,-2 0,-2"
             style="fill:none;stroke:#000000;stroke-width:13.33333302;stroke-linecap:round;stroke-linejoin:round;stroke-miterlimit:10;stroke-dasharray:none;stroke-opacity:1"
             id="path4708"
             inkscape:connector-curvature="0" /><path
             d="m 5013,3514 -871,266"
             style="fill:none;stroke:#000000;stroke-width:13.33333302;stroke-linecap:round;stroke-linejoin:round;stroke-miterlimit:10;stroke-dasharray:none;stroke-opacity:1"
             id="path4710"
             inkscape:connector-curvature="0" /><path
             d="m 4142,3780 -2,0 -1,1 -2,1 -2,1 -2,1 -2,1 -1,1 -2,1 -2,1 -1,1 -2,1 -2,1 -1,2 -2,1 -1,1 -1,2 -2,1 -1,2 -1,2 -1,1 -1,2 -1,2 -1,1 -1,2 -1,2 -1,2 0,2 -1,2 -1,2 0,1 -1,2 0,2 0,2 -1,2 0,2 0,2 0,2 0,1"
             style="fill:none;stroke:#000000;stroke-width:13.33333302;stroke-linecap:round;stroke-linejoin:round;stroke-miterlimit:10;stroke-dasharray:none;stroke-opacity:1"
             id="path4712"
             inkscape:connector-curvature="0" /><path
             d="m 4101,3836 0,3118"
             style="fill:none;stroke:#000000;stroke-width:13.33333302;stroke-linecap:round;stroke-linejoin:round;stroke-miterlimit:10;stroke-dasharray:none;stroke-opacity:1"
             id="path4714"
             inkscape:connector-curvature="0" /><path
             d="m 4101,6954 0,2 0,2 0,2 1,2 0,1 0,2 1,2 0,2 1,2 0,2 1,2 1,2 1,2 1,1 1,2 1,2 1,2 1,1 1,2 1,1 2,2 1,1 1,2 2,1 1,2 2,1 1,1 2,1 2,1 1,1 2,1 2,1 2,1 1,1 2,1 2,1 2,0"
             style="fill:none;stroke:#000000;stroke-width:13.33333302;stroke-linecap:round;stroke-linejoin:round;stroke-miterlimit:10;stroke-dasharray:none;stroke-opacity:1"
             id="path4716"
             inkscape:connector-curvature="0" /><path
             d="M 5013,7275 4142,7009"
             style="fill:none;stroke:#000000;stroke-width:13.33333302;stroke-linecap:round;stroke-linejoin:round;stroke-miterlimit:10;stroke-dasharray:none;stroke-opacity:1"
             id="path4718"
             inkscape:connector-curvature="0" /><path
             d="m 5055,7331 0,-2 0,-2 -1,-2 0,-2 0,-2 -1,-2 0,-2 0,-2 -1,-2 -1,-2 0,-1 -1,-2 -1,-2 -1,-2 -1,-2 -1,-1 -1,-2 -1,-2 -1,-1 -2,-2 -1,-1 -1,-2 -2,-1 -1,-2 -1,-1 -2,-1 -2,-2 -1,-1 -2,-1 -2,-1 -1,-1 -2,-1 -2,-1 -2,-1 -2,0 -1,-1 -2,-1 -1,0"
             style="fill:none;stroke:#000000;stroke-width:13.33333302;stroke-linecap:round;stroke-linejoin:round;stroke-miterlimit:10;stroke-dasharray:none;stroke-opacity:1"
             id="path4720"
             inkscape:connector-curvature="0" /><path
             d="m 5055,7331 0,1662"
             style="fill:none;stroke:#000000;stroke-width:13.33333302;stroke-linecap:round;stroke-linejoin:round;stroke-miterlimit:10;stroke-dasharray:none;stroke-opacity:1"
             id="path4722"
             inkscape:connector-curvature="0" /><path
             d="m 5013,9048 2,0 2,-1 2,-1 2,-1 2,0 1,-1 2,-1 2,-1 2,-2 1,-1 2,-1 1,-1 2,-2 1,-1 2,-1 1,-2 1,-1 2,-2 1,-1 1,-2 1,-2 1,-2 1,-1 1,-2 1,-2 0,-2 1,-2 1,-1 0,-2 1,-2 0,-2 1,-2 0,-2 0,-2 1,-2 0,-2 0,-2"
             style="fill:none;stroke:#000000;stroke-width:13.33333302;stroke-linecap:round;stroke-linejoin:round;stroke-miterlimit:10;stroke-dasharray:none;stroke-opacity:1"
             id="path4724"
             inkscape:connector-curvature="0" /><path
             d="m 5013,9048 -539,165"
             style="fill:none;stroke:#000000;stroke-width:13.33333302;stroke-linecap:round;stroke-linejoin:round;stroke-miterlimit:10;stroke-dasharray:none;stroke-opacity:1"
             id="path4726"
             inkscape:connector-curvature="0" /><path
             d="m 4474,9213 -2,1 -2,0 -1,1 -2,1 -2,1 -2,1 -2,1 -1,1 -2,1 -2,1 -1,1 -2,1 -1,2 -2,1 -1,2 -1,1 -2,2 -1,1 -1,2 -1,1 -1,2 -1,2 -1,2 -1,1 -1,2 -1,2 -1,2 0,2 -1,2 0,2 -1,2 0,2 0,2 -1,1 0,2 0,2 0,2 0,2 0,2 0,2 0,2 1,2 0,2 1,2 0,2 1,2 0,2 1,2 1,2 1,2 0,1 1,2 1,2 1,2 2,1 1,2 1,1 1,2 2,1 1,2 1,1 2,2 1,1 2,1 2,1 1,1 2,2 2,1 2,0 1,1 2,1 2,1 2,1 2,0 2,1 2,0 2,1 2,0 2,0 1,1 2,0 2,0 2,0"
             style="fill:none;stroke:#000000;stroke-width:13.33333302;stroke-linecap:round;stroke-linejoin:round;stroke-miterlimit:10;stroke-dasharray:none;stroke-opacity:1"
             id="path4728"
             inkscape:connector-curvature="0" /><path
             d="m 4491,9327 5046,0"
             style="fill:none;stroke:#000000;stroke-width:13.33333302;stroke-linecap:round;stroke-linejoin:round;stroke-miterlimit:10;stroke-dasharray:none;stroke-opacity:1"
             id="path4730"
             inkscape:connector-curvature="0" /><path
             d="m 9537,9327 2,0 2,0 2,0 2,-1 2,0 2,0 2,-1 2,0 1,-1 2,0 2,-1 2,-1 2,-1 2,-1 1,-1 2,-1 2,-1 2,-1 1,-1 2,-1 1,-2 2,-1 1,-1 2,-2 1,-1 1,-2 1,-1 2,-2 1,-2 1,-1 1,-2 1,-2 1,-2 0,-1 1,-2 1,-2 0,-2 1,-2 0,-2 1,-2 0,-2 1,-2 0,-2 0,-2 0,-2 0,-2 0,-2 0,-2 0,-2 -1,-2 0,-2 0,-2 -1,-2 0,-2 -1,-1 -1,-2 0,-2 -1,-2 -1,-2 -1,-2 -1,-1 -1,-2 -1,-2 -1,-1 -1,-2 -1,-2 -2,-1 -1,-2 -2,-1 -1,-1 -2,-2 -1,-1 -2,-1 -1,-1 -2,-1 -2,-1 -1,-1 -2,-1 -2,-1 -2,-1 -2,-1 -2,0 -1,-1"
             style="fill:none;stroke:#000000;stroke-width:13.33333302;stroke-linecap:round;stroke-linejoin:round;stroke-miterlimit:10;stroke-dasharray:none;stroke-opacity:1"
             id="path4732"
             inkscape:connector-curvature="0" /><path
             d="m 9015,9048 539,165"
             style="fill:none;stroke:#000000;stroke-width:13.33333302;stroke-linecap:round;stroke-linejoin:round;stroke-miterlimit:10;stroke-dasharray:none;stroke-opacity:1"
             id="path4734"
             inkscape:connector-curvature="0" /><path
             d="m 8973,8993 0,2 0,2 1,2 0,2 0,2 1,1 0,2 0,2 1,2 1,2 0,2 1,2 1,2 1,2 1,1 1,2 1,2 1,1 1,2 2,2 1,1 1,2 2,1 1,1 1,2 2,1 2,1 1,1 2,1 2,2 1,1 2,0 2,1 2,1 2,1 1,1 2,0 1,0"
             style="fill:none;stroke:#000000;stroke-width:13.33333302;stroke-linecap:round;stroke-linejoin:round;stroke-miterlimit:10;stroke-dasharray:none;stroke-opacity:1"
             id="path4736"
             inkscape:connector-curvature="0" /><path
             d="m 8973,7331 0,1662"
             style="fill:none;stroke:#000000;stroke-width:13.33333302;stroke-linecap:round;stroke-linejoin:round;stroke-miterlimit:10;stroke-dasharray:none;stroke-opacity:1"
             id="path4738"
             inkscape:connector-curvature="0" /><path
             d="m 9015,7275 -2,1 -2,1 -2,0 -2,1 -2,1 -1,1 -2,1 -2,1 -2,1 -1,1 -2,2 -1,1 -2,1 -1,2 -2,1 -1,1 -1,2 -2,2 -1,1 -1,2 -1,1 -1,2 -1,2 -1,2 -1,2 0,1 -1,2 -1,2 0,2 -1,2 0,2 -1,2 0,2 0,2 -1,2 0,2 0,2"
             style="fill:none;stroke:#000000;stroke-width:13.33333302;stroke-linecap:round;stroke-linejoin:round;stroke-miterlimit:10;stroke-dasharray:none;stroke-opacity:1"
             id="path4740"
             inkscape:connector-curvature="0" /><path
             d="m 9886,7009 2,0 1,-1 2,-1 2,-1 2,0 2,-1 1,-1 2,-1 2,-2 1,-1 2,-1 2,-1 1,-2 2,-1 1,-1 1,-2 2,-1 1,-2 1,-2 1,-1 1,-2 1,-2 1,-1 1,-2 1,-2 1,-2 0,-2 1,-2 1,-1 0,-2 1,-2 0,-2 0,-2 1,-2 0,-2 0,-2 0,-2"
             style="fill:none;stroke:#000000;stroke-width:13.33333302;stroke-linecap:round;stroke-linejoin:round;stroke-miterlimit:10;stroke-dasharray:none;stroke-opacity:1"
             id="path4742"
             inkscape:connector-curvature="0" /><path
             d="m 9927,6954 0,-3118"
             style="fill:none;stroke:#000000;stroke-width:13.33333302;stroke-linecap:round;stroke-linejoin:round;stroke-miterlimit:10;stroke-dasharray:none;stroke-opacity:1"
             id="path4744"
             inkscape:connector-curvature="0" /><path
             d="m 9927,3836 0,-2 0,-2 0,-2 -1,-2 0,-2 0,-2 -1,-2 0,-2 -1,-2 0,-2 -1,-2 -1,-2 -1,-2 -1,-1 -1,-2 -1,-2 -1,-2 -1,-1 -1,-2 -1,-1 -2,-2 -1,-1 -1,-2 -2,-1 -1,-2 -2,-1 -1,-1 -2,-1 -2,-1 -1,-1 -2,-1 -2,-1 -2,-1 -1,-1 -2,-1 -2,0 -2,-1"
             style="fill:none;stroke:#000000;stroke-width:13.33333302;stroke-linecap:round;stroke-linejoin:round;stroke-miterlimit:10;stroke-dasharray:none;stroke-opacity:1"
             id="path4746"
             inkscape:connector-curvature="0" /><path
             d="m 9015,3514 871,266"
             style="fill:none;stroke:#000000;stroke-width:13.33333302;stroke-linecap:round;stroke-linejoin:round;stroke-miterlimit:10;stroke-dasharray:none;stroke-opacity:1"
             id="path4748"
             inkscape:connector-curvature="0" /><path
             d="m 8973,1214 0,2244"
             style="fill:none;stroke:#000000;stroke-width:13.33333302;stroke-linecap:round;stroke-linejoin:round;stroke-miterlimit:10;stroke-dasharray:none;stroke-opacity:1"
             id="path4750"
             inkscape:connector-curvature="0" /><path
             d="m 8973,3458 0,2 0,2 1,2 0,2 0,2 1,2 0,2 0,2 1,2 1,2 0,2 1,1 1,2 1,2 1,2 1,1 1,2 1,2 1,1 2,2 1,1 1,2 2,1 1,2 1,1 2,1 2,2 1,1 2,1 2,1 1,1 2,1 2,1 2,1 2,0 1,1 2,1 1,0"
             style="fill:none;stroke:#000000;stroke-width:13.33333302;stroke-linecap:round;stroke-linejoin:round;stroke-miterlimit:10;stroke-dasharray:none;stroke-opacity:1"
             id="path4752"
             inkscape:connector-curvature="0" /><path
             d="M 5055,2444 7014,588"
             style="fill:none;stroke:#000000;stroke-width:13.33333302;stroke-linecap:round;stroke-linejoin:round;stroke-miterlimit:10;stroke-dasharray:none;stroke-opacity:1"
             id="path4754"
             inkscape:connector-curvature="0" /><path
             d="m 9015,7275 871,-266"
             style="fill:none;stroke:#000000;stroke-width:13.33333302;stroke-linecap:round;stroke-linejoin:round;stroke-miterlimit:10;stroke-dasharray:none;stroke-opacity:1"
             id="path4756"
             inkscape:connector-curvature="0" /></g></g></g></g></svg>